inDegrees=no
num_controls=7
num_derivatives=13
num_iterations=103
num_multipliers=7
num_parameters=0
num_slacks=7
num_states=26
objective=4.954553
objective_accelerations=0.697736
objective_balance=0.061023
objective_effort=0.673222
objective_height=3.442308
objective_ligament=0.080263
solver_duration=1084.694692
status=Solve_Succeeded
success=true
DataType=double
version=3
OpenSimVersion=4.4-2022-07-23-0e9fedc
endheader
time	/jointset/ground_pelvis/pelvis_tilt/value	/jointset/ground_pelvis/pelvis_tx/value	/jointset/ground_pelvis/pelvis_ty/value	/jointset/hip_l/hip_flexion_l/value	/jointset/hip_l/hip_adduction_l/value	/jointset/hip_l/hip_rotation_l/value	/jointset/back/lumbar_extension/value	/jointset/patellofemoral_l/patellar_flexion_l/value	/jointset/knee_l/knee_flexion_l/value	/jointset/knee_l/knee_adduction_l/value	/jointset/knee_l/knee_rotation_l/value	/jointset/ankle_l/ankle_angle_l/value	/jointset/subtalar_l/subtalar_angle_l/value	/jointset/ground_pelvis/pelvis_tilt/speed	/jointset/ground_pelvis/pelvis_tx/speed	/jointset/ground_pelvis/pelvis_ty/speed	/jointset/hip_l/hip_flexion_l/speed	/jointset/hip_l/hip_adduction_l/speed	/jointset/hip_l/hip_rotation_l/speed	/jointset/back/lumbar_extension/speed	/jointset/patellofemoral_l/patellar_flexion_l/speed	/jointset/knee_l/knee_flexion_l/speed	/jointset/knee_l/knee_adduction_l/speed	/jointset/knee_l/knee_rotation_l/speed	/jointset/ankle_l/ankle_angle_l/speed	/jointset/subtalar_l/subtalar_angle_l/speed	/forceset/tau_hip_flexion_l	/forceset/tau_hip_adduction_l	/forceset/tau_hip_rotation_l	/forceset/tau_knee_flexion_l	/forceset/tau_ankle_angle_l	/forceset/tau_subtalar_angle_l	/forceset/tau_lumbar_extension	lambda_cid13_p0	lambda_cid13_p1	lambda_cid13_p2	lambda_cid13_p3	lambda_cid13_p4	lambda_cid13_p5	lambda_cid14_p0	/jointset/ground_pelvis/pelvis_tilt/accel	/jointset/ground_pelvis/pelvis_tx/accel	/jointset/ground_pelvis/pelvis_ty/accel	/jointset/hip_l/hip_flexion_l/accel	/jointset/hip_l/hip_adduction_l/accel	/jointset/hip_l/hip_rotation_l/accel	/jointset/back/lumbar_extension/accel	/jointset/patellofemoral_l/patellar_flexion_l/accel	/jointset/knee_l/knee_flexion_l/accel	/jointset/knee_l/knee_adduction_l/accel	/jointset/knee_l/knee_rotation_l/accel	/jointset/ankle_l/ankle_angle_l/accel	/jointset/subtalar_l/subtalar_angle_l/accel	gamma_cid13_p0	gamma_cid13_p1	gamma_cid13_p2	gamma_cid13_p3	gamma_cid13_p4	gamma_cid13_p5	gamma_cid14_p0
1	-0.1202177677369295	-0.06089594386987156	0.4241172644283212	2.089868732383452	-0.2989177585396482	0.1214535157624264	-0.9599250455092017	2.093013533788123	2.093013533788098	0.174431995876742	-0.1745297917569798	0.2722741666299324	0.09983610814741661	0.03439099875727777	0.003349728881775776	0.06980104874118008	-0.2648421062272062	-0.01762675115305349	-0.04508521779019568	6.644684335184545e-05	-0.1356361371392932	-0.1356361371393	-0.01571058432086958	0.0001513603678172046	0.08993270712319801	0.02062055319069194	-0.4015205828258439	-0.0315038628818107	-0.06231707253409146	-0.4167322228110349	0.07048429572294193	-0.002765086678032447	0.4480392042453822	-34.35319939205361	16.85805771273616	-14.15563643566044	25.63445292207927	-851.3037656238276	-22.06819051799495	-0.02279395065134137	-0.4796987114672391	-0.5791937517919574	2.52775949688857	-7.66086327447956	-0.3742614638737218	-1.729898142640834	0.001069215871882708	-6.717684590144452	-6.71768459014375	-1.094920777628998	0.004862012757153858	1.024228630832654	0.02670232954543186	4.107993203138059e-09	3.494586687511113e-08	-2.419193003444253e-07	1.735679768203781e-08	-4.057899378236778e-08	-1.890629122709274e-07	2.413351493652432e-08
1.01	-0.1198980613975657	-0.06089148906228323	0.4249421497022161	2.08683614671558	-0.2991113209808471	0.1209197643952181	-0.9599242378329493	2.091319768159079	2.09131976815906	0.1742170884662979	-0.1745272043666869	0.273224438454171	0.1000453593640364	0.02955959103907695	-0.002459312760908046	0.09522109507076933	-0.341755412768854	-0.02106626632053625	-0.0616312086432427	8.734005759383653e-05	-0.2032550183195526	-0.203255018319574	-0.027342816312774	0.0003537749860211937	0.1000438983992509	0.02121819445350835	-0.4022225257857038	-0.03122725419517697	-0.06223829579424951	-0.418727098533249	0.07034972829051127	-0.002460018195203017	0.4489543891132267	-34.49856671127519	16.75858920601848	-14.14842540649539	25.84597145430553	-852.9873769799683	-22.61557081361643	-0.02292530451259854	-0.4834625546250495	-0.5818434941113179	2.555875930323874	-7.718622329523996	-0.3258148303985095	-1.611872415907469	0.001437124688322864	-6.804701338344649	-6.804701338347528	-1.208130204937217	0.02600456256936252	0.9928987137521172	0.07460935964532835	1.593970613897439e-08	9.733764163438538e-09	-3.344796138053948e-07	-1.128240792188718e-08	-7.280309867896502e-08	-3.410774901201245e-07	3.493506635920873e-08
1.02	-0.1196263892858759	-0.06094514149584441	0.4260225851852735	2.083032016385167	-0.2993386822311636	0.1202215685476306	-0.95992345367452	2.088945671426957	2.088945671426965	0.1738837075768401	-0.1745229781551029	0.274273489058724	0.1002602498602827	0.024784153215711	-0.008271719348125163	0.1209110905736886	-0.4191510387311678	-0.0243865129765669	-0.07797411386713272	6.174329135590526e-05	-0.2717023577549085	-0.2717023577549401	-0.03940528010329308	0.0004791246529026538	0.1096884631857372	0.02174840911613538	-0.4029244687456868	-0.03095064550853699	-0.06215951905456732	-0.4207219742554341	0.07021516085813442	-0.002154949712336525	0.4498695739809702	-34.63302509171046	16.65906384534899	-14.14332165090896	26.02290452553623	-854.525729025767	-23.12054130224268	-0.02311122319745472	-0.4685047325003914	-0.5798667406985292	2.581749331554609	-7.757327158612758	-0.350407761583476	-1.68928101680956	-0.008228780223406996	-6.883376241163788	-6.883376241162179	-1.180967137351925	-0.01055097750760114	0.9309033329195441	0.01321700950739928	3.279211752177405e-08	-3.558445505934462e-08	-4.636179882724773e-07	-4.165041074189711e-08	-1.093922501240195e-07	-6.363961383991521e-07	5.742587286720338e-08
1.03	-0.1194019816326602	-0.06105677737974564	0.4273611879883432	2.078451958960142	-0.2995985670980785	0.1193612845850449	-0.9599230391547137	2.085883263448693	2.085883263448715	0.1734274262558248	-0.1745179520298066	0.2754163213151325	0.1004800523043543	0.020125938416638	-0.01404047516252463	0.1468465213013014	-0.4968974592480038	-0.02756094079016365	-0.09405729662269725	2.652226382152513e-05	-0.3408880447183149	-0.3408880447183384	-0.05189671590183483	0.0005259456728636384	0.1187674180881176	0.02219815968497246	-0.403598247515627	-0.03059004119131009	-0.06197264517172622	-0.4229110763192376	0.07042966524326366	-0.00170738229270511	0.450863004804247	-34.63776896005322	16.46511363743719	-14.11194139124984	25.93131043295581	-856.0608965209461	-23.81485269100819	-0.0233410769071495	-0.4601909848707114	-0.5731472525691311	2.604968205408276	-7.788848068178658	-0.2964327889985482	-1.564022719634619	-0.0003645229599634783	-6.952502091298695	-6.952502091298851	-1.290024181473648	0.01213130693614547	0.879804318425023	0.05885006303833324	4.969576052137948e-08	-8.110783873632289e-08	-5.931296082600306e-07	-7.20360543498263e-08	-1.460259428603848e-07	-9.331770731111379e-07	8.003595748831352e-08
1.04	-0.1192232983536382	-0.0612256542719446	0.4289602507510985	2.07309332761597	-0.2998892907426732	0.1183409316319771	-0.9599228159970146	2.08212573116732	2.082125731167347	0.1728448721005168	-0.1745124911613161	0.2766466256704704	0.1007039514506067	0.01563927836713338	-0.01971992100766647	0.1730030825108159	-0.5748658225632317	-0.0305542685138318	-0.1099879119664507	2.347087861946811e-05	-0.4107272183764772	-0.4107272183764947	-0.06465984691507554	0.0005660733003381936	0.1271828829716237	0.02256774955245883	-0.4042720262855983	-0.03022943687403232	-0.06178577128925902	-0.4251001783830067	0.07064416962842859	-0.001259814872982907	0.4518564356275128	-34.63218766170677	16.27024905818748	-14.08143548551064	25.81021906300352	-857.4570578648497	-24.47331620801101	-0.02362521268013738	-0.4341937825867113	-0.5620047468469469	2.625975427935001	-7.801715718291113	-0.3141877435980013	-1.658767534447464	-0.001794851756477991	-7.014073580114977	-7.014073580113807	-1.235306180291788	-0.01188965600531141	0.7982053291448074	-0.002815130763063082	6.764032809885297e-08	-1.353790559306111e-07	-7.325543678262874e-07	-1.006224203997349e-07	-1.81674738668921e-07	-1.273306103950594e-06	1.06346907214408e-07
1.05	-0.1190882582195337	-0.06145072533962775	0.430821915927956	2.066954174124217	-0.3002090278817461	0.1171624389026795	-0.9599225756414759	2.077666846010723	2.077666846010808	0.1721330886468739	-0.1745068485624664	0.2779574541165639	0.1009310083163187	0.01143151196819253	-0.02526440116308932	0.1993604694963982	-0.6529773713176492	-0.03335848426921671	-0.1256788659842142	2.001331603543065e-05	-0.4811304074775904	-0.4811304074776213	-0.0777334326038064	0.0005621657262705835	0.134842742761509	0.02282197016941017	-0.404849997836999	-0.02978983555235554	-0.06147675256217622	-0.4274749324327129	0.07122151134942646	-0.0006689990676643541	0.452834559702176	-34.4884884378431	15.97801513640809	-14.02287274854895	25.43056578850506	-858.779718794697	-25.3263561830768	-0.02395151726549408	-0.4046437533855884	-0.5462120637024415	2.645154010960181	-7.817740584306416	-0.2581968718210835	-1.51947719597176	-0.0003092441580779606	-7.065557577133053	-7.065557577136182	-1.348765761029596	0.005096810826982236	0.7288646741243046	0.03642724178896732	8.561742456938483e-08	-1.899236429223153e-07	-8.722889130043786e-07	-1.291525590259554e-07	-2.172927564484625e-07	-1.614789762794034e-06	1.327735089750332e-07
1.06	-0.1189934108863333	-0.06173034969162952	0.4329480617100881	2.060033531918914	-0.3005557388544229	0.11582799306108	-0.9599225074687667	2.07250150576271	2.07250150576279	0.1712894931366783	-0.1745012974155486	0.2793406788346029	0.1011599847049726	0.007600718175710131	-0.03063057787138897	0.2258992035657243	-0.7311635652836486	-0.03594903523712092	-0.141178534423222	-1.096567251139737e-05	-0.55201823665962	-0.5520182366596682	-0.09102225820714069	0.0005477829095697704	0.1416621373599637	0.02295165414094323	-0.4054279693882965	-0.0293502342306587	-0.06116773383520162	-0.4298496864824024	0.07179885307040858	-7.818326232461486e-05	0.4538126837769402	-34.33540748232534	15.68398117354687	-13.96384283870263	25.02848542145896	-859.9741594052778	-26.1507692906388	-0.02433037165802918	-0.3587992612949081	-0.5263440574223088	2.662244844683793	-7.816644760607491	-0.2714547861020904	-1.620510418696471	-0.007299136948963839	-7.11100159629831	-7.111001596297934	-1.278354163212538	-0.01398470453235585	0.6301122908586356	-0.02772245984707069	1.047906143290481e-07	-2.54047835856526e-07	-1.021032592414335e-06	-1.553478780931761e-07	-2.501854641940114e-07	-2.003298564719044e-06	1.633497923517693e-07
1.07	-0.118934673665316	-0.06206258884610025	0.4353404132141101	2.052330983978542	-0.3009273005127043	0.1143398006266774	-0.9599229048905645	2.066625187207398	2.066625187207468	0.1703117797010169	-0.1744960994830798	0.2807875894522058	0.101389465210662	0.004238155765622024	-0.03577249706607314	0.25259330783376	-0.8093302938042674	-0.03832433632543061	-0.1564269898252213	-7.376221054155387e-05	-0.6232972670316798	-0.6232972670316506	-0.1045434106919772	0.0004939927422659814	0.1475527884765482	0.02291501161520951	-0.405923971328658	-0.02883006788556304	-0.06072694785740644	-0.4323461812304647	0.07272521385466667	0.0006398275757972828	0.4547950579843696	-34.04717964854782	15.29977427299261	-13.87756557516038	24.35950391532233	-861.0674874577061	-27.14535199251825	-0.02474923640915231	-0.3112538443643371	-0.5014391096461949	2.676267757415412	-7.814312942394058	-0.2145407720871576	-1.472036947973528	-0.006556441795046436	-7.14416191713882	-7.14416191712798	-1.392290768335912	-0.001049975983230095	0.5434590520091853	0.004140219103777592	1.240274260721758e-07	-3.18681582298317e-07	-1.170255481091943e-06	-1.814190046306627e-07	-2.829332086398797e-07	-2.394308704042011e-06	1.941468034740433e-07
1.08	-0.1189068158910581	-0.06244491184435048	0.4380003606687233	2.043847243544042	-0.3013214097822504	0.1127001188688169	-0.9599240875835857	2.06003451671647	2.060034516716534	0.1691981957449374	-0.1744914342128705	0.2822883900869697	0.1016177343647023	0.001424828815564092	-0.04064734662729148	0.2794183936839411	-0.8874020641090992	-0.04045855748942603	-0.1714763991081016	-0.0001680199311867986	-0.694888623782883	-0.6948886237827823	-0.1181963622654514	0.0004412504488001563	0.1524401407911781	0.02270938381108281	-0.4064199732690893	-0.02830990154049293	-0.0602861618797769	-0.4348426759785071	0.07365157463895401	0.001357838413900794	0.455777432191742	-33.75084030543512	14.91285335406491	-13.78937735541971	23.67679425320624	-862.0476093460128	-28.11928297861386	-0.0252173108688259	-0.2489521692885968	-0.4729301307292054	2.688441161112886	-7.797653117450035	-0.2232388012393901	-1.580701194872816	-0.01359137347197247	-7.173466872127109	-7.173466872127896	-1.304713980940092	-0.01377512976507858	0.4294525304675196	-0.06151951552600596	1.4289898419683e-07	-3.886317093547695e-07	-1.318568484195786e-06	-2.03098874771588e-07	-3.102722574511555e-07	-2.799068034032478e-06	2.265720491953342e-07
